# xmcd CD database file
#
# Track frame offsets:
#	150
#	34812
#	64770
#	88231
#	109964
#	130072
#	155209
#	183116
#	201490
#	232736
#	260190
#
# Disc length: 3486 seconds
#
# Revision: 0
# Processed by: cddbd v1.5.2PL0 Copyright (c) Steve Scherf et al.
# Submitted via: CDex 1.51
#
DISCID=9f0d9c0b
DTITLE=surprise - undiscovered fascination
DYEAR=1996
DGENRE=Jazz
TTITLE0=undiscovered fascination
TTITLE1=no way out
TTITLE2=jazz it up
TTITLE3=el corazon
TTITLE4=kurz und buendig
TTITLE5=impossible happiness
TTITLE6=extasy
TTITLE7=the splash
TTITLE8=spice of live
TTITLE9=andorra
TTITLE10=to make it short
EXTD=YEAR: 1996
EXTT0=
EXTT1=
EXTT2=
EXTT3=
EXTT4=
EXTT5=
EXTT6=
EXTT7=
EXTT8=
EXTT9=
EXTT10=
PLAYORDER=
